<svg width="226" height="226" viewBox="0 0 226 226" fill="none" xmlns="http://www.w3.org/2000/svg">
<path d="M226 113C226 98.1606 223.077 83.4666 217.398 69.7568C211.72 56.047 203.396 43.59 192.903 33.0969C182.41 22.6039 169.953 14.2804 156.243 8.60161C142.533 2.92284 127.839 0 113 0C98.1606 0 83.4666 2.92284 69.7568 8.60161C56.047 14.2804 43.5899 22.6039 33.0969 33.0969C22.6039 43.59 14.2804 56.047 8.60161 69.7568C2.92283 83.4666 -1.2973e-06 98.1606 0 113H33.9C33.9 102.612 35.946 92.3266 39.9211 82.7298C43.8963 73.1329 49.7227 64.413 57.0679 57.0679C64.413 49.7227 73.1329 43.8963 82.7297 39.9211C92.3266 35.946 102.612 33.9 113 33.9C123.388 33.9 133.673 35.946 143.27 39.9211C152.867 43.8963 161.587 49.7227 168.932 57.0679C176.277 64.413 182.104 73.1329 186.079 82.7297C190.054 92.3266 192.1 102.612 192.1 113H226Z" fill="#B8EAFF"/>
<path d="M226 113C226 90.6507 219.373 68.8033 206.956 50.2206C194.539 31.6378 176.891 17.1543 156.243 8.60161C135.595 0.0489044 112.875 -2.18887 90.9548 2.17126C69.0349 6.53139 48.9003 17.2936 33.0969 33.0969L57.0679 57.0679C68.1302 46.0055 82.2245 38.472 97.5684 35.4199C112.912 32.3678 128.817 33.9342 143.27 39.9211C157.724 45.908 170.078 56.0465 178.769 69.0544C187.461 82.0623 192.1 97.3555 192.1 113H226Z" fill="#59D7FF"/>
<path d="M226 113C226 93.1644 220.779 73.6782 210.861 56.5C200.943 39.3218 186.678 25.0569 169.5 15.1391L152.55 44.4974C164.575 51.4399 174.56 61.4253 181.503 73.45C188.445 85.4747 192.1 99.1151 192.1 113H226Z" fill="#349EFF"/>
<path d="M0 113C1.73409e-06 132.836 5.22131 152.322 15.1391 169.5C25.057 186.678 39.3218 200.943 56.5 210.861L73.45 181.503C61.4253 174.56 51.4399 164.575 44.4974 152.55C37.5549 140.525 33.9 126.885 33.9 113H0Z" fill="#FF8C8C"/>
<path d="M0 113C2.31104e-06 139.435 9.26813 165.034 26.1918 185.342L52.2342 163.639C40.3877 149.424 33.9 131.505 33.9 113H0Z" fill="#FF5F5F"/>
<path d="M0 113C1.21863e-06 126.939 2.57913 140.759 7.60716 153.76L39.225 141.532C35.7054 132.431 33.9 122.758 33.9 113H0Z" fill="#E93E3E"/>
<path d="M56.5 210.861C73.6782 220.779 93.1644 226 113 226C132.836 226 152.322 220.779 169.5 210.861C186.678 200.943 200.943 186.678 210.861 169.5C220.779 152.322 226 132.836 226 113L192.1 113C192.1 126.885 188.445 140.525 181.503 152.55C174.56 164.575 164.575 174.56 152.55 181.503C140.525 188.445 126.885 192.1 113 192.1C99.1151 192.1 85.4747 188.445 73.45 181.503L56.5 210.861Z" fill="#FFE896"/>
<path d="M56.5 210.861C69.3513 218.281 83.5381 223.096 98.2506 225.033C112.963 226.97 127.913 225.99 142.247 222.15C156.58 218.309 170.017 211.683 181.79 202.649C193.563 193.615 203.441 182.351 210.861 169.5L181.503 152.55C176.309 161.546 169.394 169.431 161.153 175.754C152.912 182.078 143.506 186.716 133.473 189.405C123.439 192.093 112.974 192.779 102.675 191.423C92.3767 190.067 82.4459 186.696 73.45 181.503L56.5 210.861Z" fill="#F8E32C"/>
<path d="M56.5 210.861C82.4543 225.846 113.298 229.906 142.247 222.15L133.473 189.405C113.209 194.834 91.618 191.992 73.45 181.503L56.5 210.861Z" fill="#FFD12F"/>
</svg>
