<svg width="16" height="16" viewBox="0 0 16 16" fill="none" xmlns="http://www.w3.org/2000/svg">
<path d="M1.33399 5.99601C1.33363 5.47081 1.43689 4.9507 1.63783 4.46546C1.83877 3.98023 2.13346 3.53939 2.50502 3.16821C2.87657 2.79702 3.3177 2.50278 3.80314 2.30232C4.28858 2.10186 4.80879 1.99913 5.33399 2.00001H10.6673C12.876 2.00001 14.6673 3.79667 14.6673 5.99601V14H5.33399C3.12532 14 1.33399 12.2033 1.33399 10.004V5.99601ZM13.334 12.6667V5.99601C13.3322 5.28967 13.0506 4.61283 12.5507 4.11375C12.0509 3.61467 11.3737 3.33404 10.6673 3.33334H5.33399C4.98388 3.33246 4.63705 3.4007 4.31338 3.53416C3.98971 3.66761 3.69557 3.86364 3.44783 4.11102C3.20008 4.35839 3.00361 4.65224 2.86967 4.97571C2.73573 5.29918 2.66697 5.6459 2.66732 5.99601V10.004C2.66908 10.7103 2.95073 11.3872 3.45056 11.8863C3.95039 12.3853 4.62765 12.666 5.33399 12.6667H13.334ZM9.33399 7.33334H10.6673V8.66667H9.33399V7.33334ZM5.33399 7.33334H6.66732V8.66667H5.33399V7.33334Z" fill="#89A5B5"/>
</svg>
