<svg width="423" height="43" viewBox="0 0 423 43" fill="none" xmlns="http://www.w3.org/2000/svg">
<path d="M173.499 13.156C175.657 13.156 177.36 11.843 177.867 9.75H176.632C176.164 11.193 174.968 12.012 173.499 12.012C171.471 12.012 170.028 10.569 170.028 8.45C170.028 6.331 171.471 4.888 173.499 4.888C174.929 4.888 176.112 5.668 176.593 7.02H177.828C177.321 5.018 175.618 3.744 173.499 3.744C170.795 3.744 168.832 5.707 168.832 8.45C168.832 11.193 170.795 13.156 173.499 13.156ZM185.074 6.5H178.951V7.553H181.447V13H182.578V7.553H185.074V6.5ZM189.024 6.344C187.451 6.344 186.424 7.15 186.203 8.359H187.412C187.581 7.735 188.101 7.371 189.011 7.371C190.025 7.371 190.636 7.917 190.636 9.035V9.23H188.439C186.931 9.23 186.008 10.01 186.008 11.193C186.008 12.402 186.97 13.156 188.413 13.156C189.297 13.156 190.155 12.831 190.727 12.129L190.883 13H191.754V8.957C191.754 7.371 190.675 6.344 189.024 6.344ZM188.465 12.129C187.633 12.129 187.165 11.765 187.165 11.154C187.165 10.53 187.646 10.166 188.478 10.166H190.636V10.244C190.636 11.336 189.83 12.129 188.465 12.129ZM202.284 13H203.701L200.932 9.633L203.441 6.5H202.076L200.009 9.113H198.982V6.5H197.851V9.113H196.824L194.757 6.5H193.392L195.901 9.633L193.132 13H194.549L196.85 10.166H197.851V13H198.982V10.166H199.983L202.284 13ZM205.043 7.956H206.395V6.5H205.043V7.956ZM205.043 13H206.395V11.544H205.043V13Z" fill="#89A5B5"/>
<path d="M171.088 37.592C174.288 34.568 175.984 32.68 175.984 30.664C175.984 28.824 174.624 27.608 172.592 27.608C170.384 27.608 169.072 28.92 169.072 30.936V31.208H170.528V30.936C170.528 29.768 171.28 29.016 172.608 29.016C173.792 29.016 174.496 29.656 174.496 30.728C174.496 32.328 173.152 33.768 168.992 37.752V39H176.24V37.592H171.088ZM181.876 31.96C181.012 31.96 180.436 32.168 180.02 32.408L180.34 29.176H184.788V27.8H179.028L178.404 34.168H179.812C180.116 33.72 180.708 33.288 181.748 33.288C183.108 33.288 183.972 34.152 183.972 35.56C183.972 36.92 183.108 37.784 181.732 37.784C180.372 37.784 179.7 37.048 179.572 36.104H178.084C178.228 37.864 179.604 39.192 181.684 39.192C184.004 39.192 185.444 37.752 185.444 35.544C185.444 33.416 183.988 31.96 181.876 31.96ZM193.299 31L192.755 35.736C192.595 37.128 192.115 37.64 191.187 37.64H190.851V39.032H191.107C193.011 39.032 193.859 38.2 194.131 35.848L194.531 32.296H197.699V39H199.091V31H193.299ZM209.7 35.016C209.7 32.552 207.924 30.808 205.556 30.808C203.14 30.808 201.364 32.584 201.364 35C201.364 37.384 203.108 39.192 205.636 39.192C207.54 39.192 208.82 38.264 209.492 36.696H208.036C207.492 37.592 206.74 37.928 205.652 37.928C204.1 37.928 202.98 36.968 202.772 35.496H209.668C209.684 35.352 209.7 35.224 209.7 35.016ZM205.556 32.072C207.076 32.072 208.02 33.032 208.26 34.312H202.804C203.076 32.952 204.148 32.072 205.556 32.072ZM218.264 31H210.728V32.296H213.8V39H215.192V32.296H218.264V31Z" fill="white"/>
<line x1="152.5" y1="0.5" x2="152.5" y2="41.5" stroke="#89A5B5" stroke-linecap="round"/>
<path d="M293.499 13.156C295.657 13.156 297.36 11.843 297.867 9.75H296.632C296.164 11.193 294.968 12.012 293.499 12.012C291.471 12.012 290.028 10.569 290.028 8.45C290.028 6.331 291.471 4.888 293.499 4.888C294.929 4.888 296.112 5.668 296.593 7.02H297.828C297.321 5.018 295.618 3.744 293.499 3.744C290.795 3.744 288.832 5.707 288.832 8.45C288.832 11.193 290.795 13.156 293.499 13.156ZM299.77 6.5V13H300.901V7.553H304.645V13H305.776V6.5H299.77ZM314.391 9.763C314.391 7.761 312.948 6.344 311.024 6.344C309.061 6.344 307.618 7.787 307.618 9.75C307.618 11.687 309.035 13.156 311.089 13.156C312.636 13.156 313.676 12.402 314.222 11.128H313.039C312.597 11.856 311.986 12.129 311.102 12.129C309.841 12.129 308.931 11.349 308.762 10.153H314.365C314.378 10.036 314.391 9.932 314.391 9.763ZM311.024 7.371C312.259 7.371 313.026 8.151 313.221 9.191H308.788C309.009 8.086 309.88 7.371 311.024 7.371ZM322.008 11.947V6.5H320.877V11.947H317.367V6.5H316.236V13H321.839V14.82H322.944V11.947H322.008ZM329.295 6.5L325.707 11.245V6.5H324.602V13H325.733L329.321 8.255V13H330.426V6.5H329.295ZM335.379 6.344C333.806 6.344 332.779 7.15 332.558 8.359H333.767C333.936 7.735 334.456 7.371 335.366 7.371C336.38 7.371 336.991 7.917 336.991 9.035V9.23H334.794C333.286 9.23 332.363 10.01 332.363 11.193C332.363 12.402 333.325 13.156 334.768 13.156C335.652 13.156 336.51 12.831 337.082 12.129L337.238 13H338.109V8.957C338.109 7.371 337.03 6.344 335.379 6.344ZM334.82 12.129C333.988 12.129 333.52 11.765 333.52 11.154C333.52 10.53 334.001 10.166 334.833 10.166H336.991V10.244C336.991 11.336 336.185 12.129 334.82 12.129ZM341.411 6.5L340.969 10.348C340.839 11.479 340.449 11.895 339.695 11.895H339.422V13.026H339.63C341.177 13.026 341.866 12.35 342.087 10.439L342.412 7.553H344.986V13H346.117V6.5H341.411ZM353.099 6.5L349.511 11.245V6.5H348.406V13H349.537L353.125 8.255V13H354.23V6.5H353.099ZM360.496 9.633C360.977 9.308 361.211 8.853 361.211 8.242C361.211 7.098 360.21 6.344 358.715 6.344C357.246 6.344 356.206 7.163 356.076 8.398H357.194C357.311 7.722 357.883 7.345 358.715 7.345C359.573 7.345 360.106 7.696 360.106 8.307C360.106 8.918 359.703 9.256 358.936 9.256H357.896V10.205H358.819C359.859 10.205 360.301 10.543 360.301 11.141C360.301 11.7 359.833 12.155 358.741 12.155C357.792 12.155 357.246 11.83 357.09 11.011H355.959C356.076 12.311 357.077 13.156 358.728 13.156C360.353 13.156 361.432 12.35 361.432 11.128C361.432 10.452 361.068 9.945 360.496 9.633ZM365.912 6.344C364.339 6.344 363.312 7.15 363.091 8.359H364.3C364.469 7.735 364.989 7.371 365.899 7.371C366.913 7.371 367.524 7.917 367.524 9.035V9.23H365.327C363.819 9.23 362.896 10.01 362.896 11.193C362.896 12.402 363.858 13.156 365.301 13.156C366.185 13.156 367.043 12.831 367.615 12.129L367.771 13H368.642V8.957C368.642 7.371 367.563 6.344 365.912 6.344ZM365.353 12.129C364.521 12.129 364.053 11.765 364.053 11.154C364.053 10.53 364.534 10.166 365.366 10.166H367.524V10.244C367.524 11.336 366.718 12.129 365.353 12.129ZM376.61 11.947V6.5H375.479V11.947H371.969V6.5H370.838V13H376.441V14.82H377.546V11.947H376.61ZM383.898 6.5L380.31 11.245V6.5H379.205V13H380.336L383.924 8.255V13H385.029V6.5H383.898ZM389.332 6.5C387.98 6.5 387.096 7.384 387.096 8.554C387.096 9.412 387.655 10.179 388.539 10.452L386.823 13H388.136L389.748 10.608H391.49V13H392.621V6.5H389.332ZM388.253 8.554C388.253 7.917 388.669 7.501 389.436 7.501H391.49V9.607H389.436C388.669 9.607 388.253 9.191 388.253 8.554ZM394.779 7.956H396.131V6.5H394.779V7.956ZM394.779 13H396.131V11.544H394.779V13Z" fill="#89A5B5"/>
<path d="M296.448 39H298.304L293.872 33.192L297.936 27.8H296.16L292.672 32.52H291.104V27.8H289.632V39H291.104V33.928H292.608L296.448 39ZM304.417 30.808C303.201 30.808 302.113 31.288 301.361 32.072L301.121 31H300.033V42.088H301.425V38.008C302.177 38.744 303.233 39.192 304.417 39.192C306.785 39.192 308.577 37.4 308.577 35C308.577 32.6 306.785 30.808 304.417 30.808ZM304.273 37.928C302.545 37.928 301.361 36.744 301.361 35C301.361 33.256 302.545 32.072 304.273 32.072C306.001 32.072 307.185 33.256 307.185 35C307.185 36.744 306.001 37.928 304.273 37.928ZM314.126 30.808C312.19 30.808 310.926 31.8 310.654 33.288H312.142C312.35 32.52 312.99 32.072 314.11 32.072C315.358 32.072 316.11 32.744 316.11 34.12V34.36H313.406C311.549 34.36 310.414 35.32 310.414 36.776C310.414 38.264 311.598 39.192 313.374 39.192C314.462 39.192 315.518 38.792 316.222 37.928L316.414 39H317.486V34.024C317.486 32.072 316.158 30.808 314.126 30.808ZM313.438 37.928C312.414 37.928 311.838 37.48 311.838 36.728C311.838 35.96 312.43 35.512 313.454 35.512H316.11V35.608C316.11 36.952 315.118 37.928 313.438 37.928ZM330.445 39H332.189L328.781 34.856L331.869 31H330.189L327.645 34.216H326.381V31H324.989V34.216H323.725L321.181 31H319.501L322.589 34.856L319.181 39H320.925L323.757 35.512H324.989V39H326.381V35.512H327.613L330.445 39ZM339.778 31L335.362 36.84V31H334.002V39H335.394L339.81 33.16V39H341.17V31H339.778ZM343.666 37.208V39H344.498C344.498 39.768 344.306 40.28 343.698 40.456V41.304C344.706 41.08 345.33 40.264 345.33 38.904V37.208H343.666ZM357.566 31H352.142V39H353.534V32.296H357.566V31ZM363.808 30.808C362.592 30.808 361.504 31.288 360.752 32.072L360.512 31H359.424V42.088H360.816V38.008C361.568 38.744 362.624 39.192 363.808 39.192C366.176 39.192 367.968 37.4 367.968 35C367.968 32.6 366.176 30.808 363.808 30.808ZM363.664 37.928C361.936 37.928 360.752 36.744 360.752 35C360.752 33.256 361.936 32.072 363.664 32.072C365.392 32.072 366.576 33.256 366.576 35C366.576 36.744 365.392 37.928 363.664 37.928ZM373.516 30.808C371.58 30.808 370.316 31.8 370.044 33.288H371.532C371.74 32.52 372.38 32.072 373.5 32.072C374.748 32.072 375.5 32.744 375.5 34.12V34.36H372.796C370.94 34.36 369.804 35.32 369.804 36.776C369.804 38.264 370.988 39.192 372.764 39.192C373.852 39.192 374.908 38.792 375.612 37.928L375.804 39H376.876V34.024C376.876 32.072 375.548 30.808 373.516 30.808ZM372.828 37.928C371.804 37.928 371.228 37.48 371.228 36.728C371.228 35.96 371.82 35.512 372.844 35.512H375.5V35.608C375.5 36.952 374.508 37.928 372.828 37.928ZM383.996 31.112C382.668 31.112 381.452 31.512 380.652 32.504C380.844 30.216 381.66 28.968 384.156 28.696C385.164 28.584 386.268 28.648 387.372 28.408V27.08C386.188 27.352 385.084 27.32 384.028 27.416C380.38 27.752 379.26 30.056 379.26 33.96C379.26 34.84 379.372 35.64 379.596 36.328C380.172 38.104 381.516 39.192 383.66 39.192C386.188 39.192 387.948 37.448 387.948 35.096C387.948 32.856 386.252 31.112 383.996 31.112ZM383.644 37.928C381.884 37.928 380.716 36.808 380.716 35.128C380.716 33.528 381.9 32.376 383.644 32.376C385.404 32.376 386.556 33.48 386.556 35.128C386.556 36.808 385.388 37.928 383.644 37.928ZM398.013 35.016C398.013 32.552 396.237 30.808 393.869 30.808C391.453 30.808 389.677 32.584 389.677 35C389.677 37.384 391.421 39.192 393.949 39.192C395.853 39.192 397.133 38.264 397.805 36.696H396.349C395.805 37.592 395.053 37.928 393.965 37.928C392.413 37.928 391.293 36.968 391.085 35.496H397.981C397.997 35.352 398.013 35.224 398.013 35.016ZM393.869 32.072C395.389 32.072 396.333 33.032 396.573 34.312H391.117C391.389 32.952 392.461 32.072 393.869 32.072ZM410.227 39H411.971L408.562 34.856L411.651 31H409.971L407.427 34.216H406.163V31H404.771V34.216H403.507L400.963 31H399.283L402.371 34.856L398.963 39H400.707L403.539 35.512H404.771V39H406.163V35.512H407.395L410.227 39ZM419.559 31L415.143 36.84V31H413.783V39H415.175L419.591 33.16V39H420.951V31H419.559Z" fill="white"/>
<line x1="272.5" y1="0.5" x2="272.5" y2="41.5" stroke="#89A5B5" stroke-linecap="round"/>
<path d="M20.615 3.9H17.326V13H18.522V9.776H20.615C22.396 9.776 23.657 8.515 23.657 6.838C23.657 5.161 22.396 3.9 20.615 3.9ZM20.55 8.658H18.522V5.018H20.55C21.72 5.018 22.461 5.759 22.461 6.838C22.461 7.917 21.72 8.658 20.55 8.658ZM31.6127 9.763C31.6127 7.761 30.1697 6.344 28.2457 6.344C26.2827 6.344 24.8397 7.787 24.8397 9.75C24.8397 11.687 26.2567 13.156 28.3107 13.156C29.8577 13.156 30.8977 12.402 31.4437 11.128H30.2607C29.8187 11.856 29.2077 12.129 28.3237 12.129C27.0627 12.129 26.1527 11.349 25.9837 10.153H31.5867C31.5997 10.036 31.6127 9.932 31.6127 9.763ZM28.2457 7.371C29.4807 7.371 30.2477 8.151 30.4427 9.191H26.0097C26.2307 8.086 27.1017 7.371 28.2457 7.371ZM38.0985 4.238H34.6665V5.135H38.0985V4.238ZM38.1505 6.5L34.5625 11.245V6.5H33.4575V13H34.5885L38.1765 8.255V13H39.2815V6.5H38.1505ZM46.8738 6.5H40.7508V7.553H43.2468V13H44.3778V7.553H46.8738V6.5ZM53.0421 6.5L49.4541 11.245V6.5H48.3491V13H49.4801L53.0681 8.255V13H54.1731V6.5H53.0421ZM61.2974 6.5V9.152H57.5924V6.5H56.4614V13H57.5924V10.205H61.2974V13H62.4284V6.5H61.2974ZM69.1203 6.5H64.7133V13H65.8443V7.553H69.1203V6.5ZM70.4994 7.956H71.8514V6.5H70.4994V7.956ZM70.4994 13H71.8514V11.544H70.4994V13Z" fill="#89A5B5"/>
<path d="M22.448 33.032C23.328 32.472 23.728 31.624 23.728 30.584C23.728 28.92 22.416 27.608 20.416 27.608C18.384 27.608 16.992 28.936 16.944 30.696H18.432C18.48 29.72 19.232 28.984 20.416 28.984C21.552 28.984 22.256 29.688 22.256 30.696C22.256 31.784 21.584 32.456 20.368 32.456H19.264V33.8H20.384C21.824 33.8 22.64 34.616 22.64 35.8C22.64 37 21.824 37.816 20.416 37.816C18.992 37.816 18.224 37.08 18.176 35.864H16.704C16.752 37.864 18.192 39.192 20.368 39.192C22.688 39.192 24.112 37.768 24.112 35.8C24.112 34.648 23.552 33.624 22.448 33.032ZM32.1669 33.016C32.9029 32.536 33.4309 31.704 33.4309 30.568C33.4309 28.904 32.1349 27.608 29.9589 27.608C27.7829 27.608 26.4869 28.904 26.4869 30.568C26.4869 31.704 27.0149 32.536 27.7509 33.016C26.8069 33.544 26.0869 34.52 26.0869 35.8C26.0869 37.784 27.4949 39.192 29.9589 39.192C32.4229 39.192 33.8309 37.784 33.8309 35.8C33.8309 34.52 33.1109 33.544 32.1669 33.016ZM29.9589 28.984C31.2389 28.984 31.9589 29.704 31.9589 30.696C31.9589 31.688 31.2389 32.408 29.9589 32.408C28.6789 32.408 27.9589 31.688 27.9589 30.696C27.9589 29.704 28.6789 28.984 29.9589 28.984ZM29.9589 37.816C28.4229 37.816 27.5589 36.952 27.5589 35.768C27.5589 34.584 28.4229 33.72 29.9589 33.72C31.4949 33.72 32.3589 34.584 32.3589 35.768C32.3589 36.952 31.4949 37.816 29.9589 37.816ZM35.963 39H37.627V37.208H35.963V39ZM47.1667 35.368H46.0788V32.312H44.6068V35.368H40.9268L44.5748 27.8H42.9908L39.2788 35.528V36.776H44.6068V39H46.0788V36.776H47.1667V35.368ZM57.699 31.112C56.371 31.112 55.155 31.512 54.355 32.504C54.547 30.216 55.363 28.968 57.859 28.696C58.867 28.584 59.971 28.648 61.075 28.408V27.08C59.891 27.352 58.787 27.32 57.731 27.416C54.083 27.752 52.963 30.056 52.963 33.96C52.963 34.84 53.075 35.64 53.299 36.328C53.875 38.104 55.219 39.192 57.363 39.192C59.891 39.192 61.651 37.448 61.651 35.096C61.651 32.856 59.955 31.112 57.699 31.112ZM57.347 37.928C55.587 37.928 54.419 36.808 54.419 35.128C54.419 33.528 55.603 32.376 57.347 32.376C59.107 32.376 60.259 33.48 60.259 35.128C60.259 36.808 59.091 37.928 57.347 37.928ZM67.2036 30.808C65.2676 30.808 64.0036 31.8 63.7316 33.288H65.2196C65.4276 32.52 66.0676 32.072 67.1876 32.072C68.4356 32.072 69.1876 32.744 69.1876 34.12V34.36H66.4836C64.6276 34.36 63.4916 35.32 63.4916 36.776C63.4916 38.264 64.6756 39.192 66.4516 39.192C67.5396 39.192 68.5956 38.792 69.2996 37.928L69.4916 39H70.5636V34.024C70.5636 32.072 69.2356 30.808 67.2036 30.808ZM66.5156 37.928C65.4916 37.928 64.9156 37.48 64.9156 36.728C64.9156 35.96 65.5076 35.512 66.5316 35.512H69.1876V35.608C69.1876 36.952 68.1956 37.928 66.5156 37.928ZM74.6274 31L74.0834 35.736C73.9234 37.128 73.4434 37.64 72.5154 37.64H72.1794V39.032H72.4354C74.3394 39.032 75.1874 38.2 75.4594 35.848L75.8594 32.296H79.0274V39H80.4194V31H74.6274ZM84.5961 31L84.0521 35.736C83.8921 37.128 83.4121 37.64 82.4841 37.64H82.1481V39.032H82.4041C84.3081 39.032 85.1561 38.2 85.4281 35.848L85.8281 32.296H88.9961V39H90.3881V31H84.5961ZM96.4849 30.808C94.5489 30.808 93.2849 31.8 93.0129 33.288H94.5009C94.7089 32.52 95.3489 32.072 96.4689 32.072C97.7169 32.072 98.4689 32.744 98.4689 34.12V34.36H95.7649C93.9089 34.36 92.7729 35.32 92.7729 36.776C92.7729 38.264 93.9569 39.192 95.7329 39.192C96.8209 39.192 97.8769 38.792 98.5809 37.928L98.7729 39H99.8449V34.024C99.8449 32.072 98.5169 30.808 96.4849 30.808ZM95.7969 37.928C94.7729 37.928 94.1969 37.48 94.1969 36.728C94.1969 35.96 94.7889 35.512 95.8129 35.512H98.4689V35.608C98.4689 36.952 97.4769 37.928 95.7969 37.928Z" fill="white"/>
<line x1="0.5" y1="0.5" x2="0.499998" y2="41.5" stroke="#89A5B5" stroke-linecap="round"/>
</svg>
