<svg width="20" height="20" viewBox="0 0 20 20" fill="none" xmlns="http://www.w3.org/2000/svg">
<path d="M5.764 17.225C6.354 16.965 7.014 16.916 7.632 17.086C8.402 17.296 9.197 17.402 10 17.4C14.585 17.4 18 14.113 18 9.7C18 5.287 14.585 2 10 2C5.415 2 2 5.287 2 9.7C2 11.97 2.896 13.972 4.466 15.376C4.75126 15.6287 4.98194 15.9369 5.14391 16.2818C5.30589 16.6268 5.39575 17.0011 5.408 17.382L5.764 17.225V17.225ZM10 0C15.634 0 20 4.127 20 9.7C20 15.273 15.634 19.4 10 19.4C9.02214 19.4025 8.04839 19.2734 7.105 19.016C6.9278 18.9673 6.73924 18.9811 6.571 19.055L4.587 19.931C4.46713 19.984 4.33608 20.0067 4.20537 19.9972C4.07467 19.9876 3.94831 19.9461 3.8374 19.8763C3.72649 19.8065 3.63444 19.7105 3.56933 19.5967C3.50422 19.483 3.46805 19.355 3.464 19.224L3.409 17.444C3.4054 17.3358 3.37977 17.2294 3.3337 17.1314C3.28762 17.0334 3.22205 16.9458 3.141 16.874C1.195 15.135 0 12.617 0 9.7C0 4.127 4.367 0 10 0ZM3.995 12.537L6.932 7.877C7.0425 7.70155 7.18818 7.55092 7.35984 7.43462C7.53149 7.31831 7.7254 7.23886 7.92931 7.20127C8.13322 7.16368 8.34271 7.16878 8.54455 7.21624C8.74639 7.2637 8.9362 7.35249 9.102 7.477L11.438 9.227C11.5421 9.30561 11.669 9.34813 11.7995 9.34813C11.93 9.34813 12.0569 9.30561 12.161 9.227L15.316 6.831C15.737 6.512 16.287 7.016 16.005 7.464L13.068 12.124C12.9575 12.2994 12.8118 12.4501 12.6402 12.5664C12.4685 12.6827 12.2746 12.7621 12.0707 12.7997C11.8668 12.8373 11.6573 12.8322 11.4555 12.7848C11.2536 12.7373 11.0638 12.6485 10.898 12.524L8.562 10.774C8.45787 10.6954 8.33096 10.6529 8.2005 10.6529C8.07004 10.6529 7.94313 10.6954 7.839 10.774L4.684 13.169C4.263 13.488 3.713 12.984 3.995 12.536V12.537Z" fill="#1E4A58"/>
</svg>
