<svg width="293" height="90" viewBox="0 0 293 90" fill="none" xmlns="http://www.w3.org/2000/svg">
<path d="M0 58.4669V32.4908H21.4424V58.4669H15.4922V37.7592H5.95017V58.4669H0Z" fill="#121B29"/>
<path d="M30.1281 58.4669V32.4908H41.1214C42.355 32.4908 43.4797 32.7469 44.4956 33.2591C45.5356 33.7469 46.4306 34.4176 47.1804 35.2713C47.9302 36.1006 48.5107 37.0396 48.9219 38.0884C49.3331 39.1372 49.5387 40.2104 49.5387 41.308C49.5387 42.7959 49.188 44.2105 48.4865 45.552C47.8093 46.8935 46.8539 47.9911 45.6203 48.8448C44.4109 49.6741 42.9717 50.0887 41.3028 50.0887H36.0783V58.4669H30.1281ZM36.0783 44.8569H40.94C41.3996 44.8569 41.8228 44.7227 42.2098 44.4544C42.5968 44.1861 42.9113 43.7837 43.1532 43.2471C43.395 42.7105 43.516 42.0519 43.516 41.2714C43.516 40.4665 43.3708 39.808 43.0806 39.2958C42.8145 38.7592 42.4638 38.3689 42.0284 38.125C41.6172 37.8811 41.1819 37.7592 40.7223 37.7592H36.0783V44.8569Z" fill="#121B29"/>
<path d="M60.9779 32.4908H67.3997L76.2524 58.4669H70.1571L68.1616 52.6497H60.1434L58.1842 58.4669H52.0889L60.9779 32.4908ZM67.182 48.5155L64.1706 38.5275L61.0867 48.5155H67.182Z" fill="#121B29"/>
<path d="M103.715 51.8083C103.715 53.2961 103.316 54.54 102.517 55.54C101.743 56.5157 100.691 57.2474 99.3608 57.7352C98.0305 58.223 96.5672 58.4669 94.9708 58.4669H82.4174V32.4908H96.7486C97.958 32.4908 98.998 32.82 99.8688 33.4786C100.764 34.1127 101.441 34.942 101.901 35.9664C102.384 36.9909 102.626 38.0519 102.626 39.1494C102.626 40.369 102.312 41.5397 101.683 42.6617C101.054 43.7593 100.135 44.5886 98.9255 45.1496C100.401 45.5886 101.562 46.3691 102.408 47.4911C103.279 48.6131 103.715 50.0521 103.715 51.8083ZM97.6556 50.6009C97.6556 50.0399 97.5468 49.5521 97.3291 49.1375C97.1114 48.6984 96.8212 48.357 96.4583 48.113C96.1197 47.8447 95.7085 47.7106 95.2248 47.7106H88.3676V53.3815H94.9708C95.4787 53.3815 95.9262 53.2595 96.3132 53.0156C96.7244 52.7717 97.0509 52.4424 97.2928 52.0278C97.5347 51.6131 97.6556 51.1375 97.6556 50.6009ZM88.3676 37.6128V42.991H94.2089C94.6443 42.991 95.0434 42.8934 95.4062 42.6983C95.7932 42.5032 96.1076 42.2105 96.3495 41.8202C96.5914 41.4056 96.7123 40.8934 96.7123 40.2836C96.7123 39.6982 96.6035 39.2104 96.3858 38.8202C96.1923 38.4299 95.9262 38.1372 95.5876 37.9421C95.2489 37.7226 94.8619 37.6128 94.4266 37.6128H88.3676Z" fill="#121B29"/>
<path d="M193.858 45.4057C193.858 43.8203 194.148 42.2715 194.729 40.7592C195.309 39.2226 196.156 37.8323 197.268 36.5884C198.381 35.3445 199.736 34.3566 201.332 33.6249C202.928 32.8688 204.742 32.4908 206.774 32.4908C209.193 32.4908 211.285 33.0152 213.051 34.064C214.841 35.1128 216.171 36.4786 217.042 38.1616L212.47 41.3812C212.083 40.4543 211.563 39.7348 210.91 39.2226C210.281 38.7104 209.58 38.3567 208.806 38.1616C208.056 37.9421 207.33 37.8323 206.629 37.8323C205.492 37.8323 204.5 38.064 203.654 38.5275C202.807 38.9665 202.106 39.5641 201.55 40.3202C200.993 41.0763 200.582 41.9178 200.316 42.8446C200.05 43.7715 199.917 44.6983 199.917 45.6252C199.917 46.6496 200.074 47.6374 200.389 48.5887C200.703 49.5399 201.15 50.3814 201.731 51.1131C202.336 51.8448 203.061 52.4302 203.908 52.8693C204.754 53.2839 205.686 53.4912 206.702 53.4912C207.427 53.4912 208.165 53.3693 208.915 53.1254C209.665 52.8814 210.354 52.5034 210.983 51.9912C211.636 51.4546 212.132 50.7594 212.47 49.9058L217.332 52.7961C216.824 54.0644 215.99 55.1498 214.829 56.0522C213.668 56.9547 212.349 57.6498 210.874 58.1377C209.423 58.6011 207.983 58.8328 206.556 58.8328C204.694 58.8328 202.977 58.4547 201.404 57.6986C199.856 56.9181 198.514 55.8937 197.377 54.6254C196.265 53.3327 195.394 51.8936 194.765 50.3082C194.16 48.6984 193.858 47.0642 193.858 45.4057Z" fill="#121B29"/>
<path d="M243.581 37.9055H235.744V58.6133H229.794V37.9055H221.921V32.6371H243.581V37.9055Z" fill="#121B29"/>
<path d="M254.271 32.6371H260.693L269.545 58.6133H263.45L261.455 52.7961H253.436L251.477 58.6133H245.382L254.271 32.6371ZM260.475 48.6618L257.464 38.6738L254.38 48.6618H260.475Z" fill="#121B29"/>
<path d="M293 37.9055H285.163V58.6133H279.213V37.9055H271.34V32.6371H293V37.9055Z" fill="#121B29"/>
<path fill-rule="evenodd" clip-rule="evenodd" d="M181.583 88.2308C181.256 85.4664 179.402 82.9223 176.631 81.4381L175.399 80.7778L148.101 80.7778L120.803 80.7778L119.25 81.64C116.649 83.0845 114.938 85.5293 114.615 88.2613L114.445 89.7048L148.101 89.7048L181.757 89.7048L181.583 88.2308ZM165.975 69.2165L148.101 69.2165L130.648 69.2165L123.139 77.9972L148.101 77.9972L174.588 77.9972L165.975 69.2165ZM165.326 33.4388L165.326 0.29521L160.807 4.8193L156.287 9.3434L156.279 37.9629L156.27 66.5823L160.798 66.5823L165.326 66.5823L165.326 33.4388ZM152.772 39.7316L152.772 12.8806L148.101 17.5569L143.43 22.2332L143.43 44.4076L143.43 66.5823L148.101 66.5823L152.772 66.5823L152.772 39.7316ZM139.926 46.3868C139.926 35.2792 139.829 26.1912 139.711 26.1912C139.592 26.1912 137.556 28.1323 135.185 30.5046L130.876 34.8182L130.876 50.7001L130.876 66.5823L135.401 66.5823L139.926 66.5823L139.926 46.3868Z" fill="url(#paint0_linear_691_2293)"/>
<path fill-rule="evenodd" clip-rule="evenodd" d="M129.112 69.7544L129.116 69.7588L124.065 74.8096L124.06 74.8046C120.982 71.7256 118.464 68.1658 116.592 64.2863C115.18 61.3613 114.136 58.2547 113.496 55.0354C112.005 47.5437 112.77 39.7785 115.693 32.7215C118.616 25.6646 123.566 19.6329 129.917 15.3892C136.269 11.1456 143.735 8.88054 151.374 8.88054L143.133 17.1214C139.861 18.0091 136.735 19.4244 133.886 21.3284C128.709 24.7872 124.675 29.7033 122.293 35.455C119.91 41.2068 119.287 47.5358 120.501 53.6418C121.715 59.7458 124.712 65.3529 129.112 69.7544ZM171.646 23.4203C175.491 26.6574 178.519 30.7802 180.455 35.455C182.838 41.2068 183.461 47.5358 182.246 53.6418C181.032 59.7478 178.034 65.3566 173.632 69.7588L178.683 74.8096C181.763 71.7295 184.282 68.1679 186.156 64.2863C187.567 61.3613 188.612 58.2547 189.252 55.0354C190.742 47.5437 189.977 39.7785 187.054 32.7215C184.757 27.1759 181.209 22.2635 176.712 18.3543C175.072 19.9808 171.764 23.271 171.646 23.4203Z" fill="#121B29"/>
<path d="M176.712 18.3543C175.486 17.289 174.19 16.2981 172.83 15.3892C172.439 15.1282 172.045 14.8747 171.646 14.6287V23.4203C171.764 23.271 175.072 19.9808 176.712 18.3543Z" fill="#121B29"/>
<defs>
<linearGradient id="paint0_linear_691_2293" x1="160.424" y1="63.4495" x2="145.996" y2="48.5885" gradientUnits="userSpaceOnUse">
<stop stop-color="#F68B2E"/>
<stop offset="1" stop-color="#F6BB5C"/>
</linearGradient>
</defs>
</svg>
