<svg width="142" height="43" viewBox="0 0 142 43" fill="none" xmlns="http://www.w3.org/2000/svg">
<path d="M0 27.9767V15.4839H10.3382V27.9767H7.46943V18.0176H2.86882V27.9767H0Z" fill="white"/>
<path d="M14.526 27.9767V15.4839H19.8263C20.4211 15.4839 20.9633 15.6071 21.4531 15.8534C21.9546 16.088 22.3861 16.4106 22.7476 16.8211C23.1091 17.22 23.389 17.6716 23.5873 18.176C23.7855 18.6804 23.8846 19.1965 23.8846 19.7244C23.8846 20.4399 23.7156 21.1203 23.3774 21.7655C23.0508 22.4106 22.5902 22.9385 21.9954 23.3491C21.4123 23.7479 20.7184 23.9473 19.9138 23.9473H17.3948V27.9767H14.526ZM17.3948 21.4312H19.7389C19.9604 21.4312 20.1645 21.3666 20.3511 21.2376C20.5377 21.1086 20.6893 20.915 20.8059 20.657C20.9225 20.3989 20.9808 20.0822 20.9808 19.7068C20.9808 19.3197 20.9109 19.003 20.7709 18.7566C20.6426 18.4986 20.4736 18.3109 20.2636 18.1936C20.0654 18.0763 19.8555 18.0176 19.6339 18.0176H17.3948V21.4312Z" fill="white"/>
<path d="M29.3999 15.4839H32.4962L36.7644 27.9767H33.8256L32.8635 25.179H28.9976L28.053 27.9767H25.1142L29.3999 15.4839ZM32.3912 23.1907L30.9393 18.3871L29.4524 23.1907H32.3912Z" fill="white"/>
<path d="M50.0051 24.7743C50.0051 25.4899 49.8127 26.0881 49.4278 26.569C49.0546 27.0383 48.5474 27.3902 47.906 27.6248C47.2646 27.8594 46.559 27.9767 45.7893 27.9767H39.7368V15.4839H46.6465C47.2296 15.4839 47.731 15.6422 48.1509 15.959C48.5823 16.264 48.9089 16.6628 49.1305 17.1555C49.3637 17.6481 49.4803 18.1584 49.4803 18.6863C49.4803 19.2728 49.3287 19.8358 49.0255 20.3754C48.7223 20.9033 48.2791 21.3021 47.696 21.5719C48.4074 21.7831 48.9672 22.1584 49.3754 22.698C49.7952 23.2376 50.0051 23.9297 50.0051 24.7743ZM47.0838 24.1937C47.0838 23.9239 47.0313 23.6892 46.9264 23.4898C46.8214 23.2787 46.6815 23.1145 46.5065 22.9972C46.3433 22.8681 46.145 22.8036 45.9118 22.8036H42.6056V25.5309H45.7893C46.0342 25.5309 46.25 25.4723 46.4366 25.355C46.6348 25.2377 46.7923 25.0793 46.9089 24.8799C47.0255 24.6805 47.0838 24.4517 47.0838 24.1937ZM42.6056 17.9473V20.5338H45.422C45.6319 20.5338 45.8243 20.4869 45.9992 20.393C46.1858 20.2992 46.3374 20.1584 46.4541 19.9707C46.5707 19.7713 46.629 19.525 46.629 19.2317C46.629 18.9502 46.5765 18.7156 46.4715 18.5279C46.3783 18.3402 46.25 18.1995 46.0867 18.1056C45.9234 18 45.7369 17.9473 45.5269 17.9473H42.6056Z" fill="white"/>
<path d="M93.4668 21.6951C93.4668 20.9326 93.6067 20.1877 93.8866 19.4605C94.1665 18.7215 94.5747 18.0528 95.1111 17.4546C95.6476 16.8563 96.3006 16.3813 97.0703 16.0293C97.84 15.6657 98.7146 15.4839 99.6942 15.4839C100.86 15.4839 101.869 15.7361 102.72 16.2405C103.583 16.7449 104.225 17.4018 104.645 18.2112L102.441 19.7596C102.254 19.3138 102.003 18.9678 101.688 18.7215C101.385 18.4751 101.047 18.305 100.674 18.2112C100.312 18.1056 99.9625 18.0528 99.6243 18.0528C99.0762 18.0528 98.598 18.1643 98.1898 18.3871C97.7817 18.5983 97.4435 18.8857 97.1753 19.2493C96.907 19.613 96.7088 20.0177 96.5805 20.4634C96.4522 20.9092 96.3881 21.3549 96.3881 21.8007C96.3881 22.2933 96.4639 22.7684 96.6155 23.2259C96.7671 23.6834 96.9829 24.0881 97.2627 24.44C97.5543 24.7919 97.9041 25.0734 98.3123 25.2846C98.7205 25.484 99.1694 25.5837 99.6592 25.5837C100.009 25.5837 100.365 25.525 100.726 25.4077C101.088 25.2904 101.42 25.1086 101.723 24.8623C102.038 24.6042 102.277 24.2699 102.441 23.8593L104.785 25.2494C104.54 25.8594 104.137 26.3814 103.578 26.8154C103.018 27.2494 102.382 27.5837 101.671 27.8183C100.971 28.0412 100.277 28.1526 99.5893 28.1526C98.6913 28.1526 97.8633 27.9708 97.1053 27.6072C96.3589 27.2318 95.7117 26.7391 95.1636 26.1292C94.6271 25.5075 94.2073 24.8154 93.9041 24.0529C93.6126 23.2787 93.4668 22.4928 93.4668 21.6951Z" fill="white"/>
<path d="M117.44 18.088H113.662V28.0471H110.793V18.088H106.997V15.5543H117.44V18.088Z" fill="white"/>
<path d="M122.594 15.5543H125.691L129.959 28.0471H127.02L126.058 25.2494H122.192L121.247 28.0471H118.309L122.594 15.5543ZM125.586 23.2611L124.134 18.4575L122.647 23.2611H125.586Z" fill="white"/>
<path d="M141.267 18.088H137.489V28.0471H134.62V18.088H130.824V15.5543H141.267V18.088Z" fill="white"/>
<path fill-rule="evenodd" clip-rule="evenodd" d="M87.5488 42.2911C87.3913 40.9616 86.4973 39.7381 85.1614 39.0243L84.5671 38.7067L71.4057 38.7067L58.2443 38.7067L57.4955 39.1214C56.2416 39.8161 55.4165 40.9919 55.2608 42.3057L55.1786 43L71.4057 43L87.6328 43L87.5488 42.2911ZM80.0234 33.1465L71.4057 33.1465L62.991 33.1465L59.3704 37.3694L71.4057 37.3694L84.1761 37.3694L80.0234 33.1465ZM79.7108 15.9398L79.7108 3.12213e-06L77.5316 2.17579L75.3524 4.35158L75.3485 18.1156L75.3444 31.8796L77.5277 31.8797L79.7108 31.8797L79.7108 15.9398ZM73.6579 18.9663L73.6579 6.05271L71.4057 8.3017L69.1535 10.5507L69.1535 21.2151L69.1535 31.8796L71.4057 31.8796L73.6579 31.8796L73.6579 18.9663ZM67.4643 22.1669C67.4643 16.8249 67.4176 12.4542 67.3604 12.4542C67.3033 12.4542 66.3214 13.3878 65.1786 14.5287L63.1006 16.6032L63.1006 24.2414L63.1006 31.8796L65.2825 31.8796L67.4643 31.8796L67.4643 22.1669Z" fill="url(#paint0_linear_703_2826)"/>
<path fill-rule="evenodd" clip-rule="evenodd" d="M61.4116 33.0366L61.4137 33.0386L59.0112 35.441L59.0088 35.4387C57.5449 33.9742 56.3471 32.2809 55.4566 30.4357C54.7852 29.0444 54.2884 27.5667 53.9838 26.0355C53.275 22.4721 53.6388 18.7786 55.0292 15.4219C56.4195 12.0653 58.774 9.19637 61.7949 7.17788C64.8158 5.15939 68.3674 4.08203 72.0006 4.08203L68.0808 8.00179C66.5243 8.42401 65.0379 9.0972 63.6825 10.0028C61.2203 11.648 59.3013 13.9863 58.1681 16.7221C57.0349 19.4579 56.7384 22.4683 57.3161 25.3726C57.8936 28.276 59.3188 30.943 61.4116 33.0366ZM81.6429 10.9979C83.4718 12.5375 84.912 14.4985 85.833 16.7221C86.9662 19.4579 87.2627 22.4683 86.685 25.3726C86.1073 28.2769 84.6813 30.9447 82.5875 33.0386L84.9899 35.441C86.455 33.976 87.6535 32.2819 88.5445 30.4357C89.2159 29.0444 89.7127 27.5667 90.0173 26.0355C90.7261 22.4721 90.3623 18.7786 88.9719 15.4219C87.8793 12.7842 86.1914 10.4476 84.0525 8.58823C83.2728 9.36184 81.6992 10.9268 81.6429 10.9979Z" fill="white"/>
<path d="M84.0525 8.58823C83.4696 8.08148 82.8532 7.61018 82.2062 7.17788C82.0204 7.05373 81.8326 6.93314 81.6429 6.81614V10.9979C81.6992 10.9268 83.2728 9.36184 84.0525 8.58823Z" fill="white"/>
<defs>
<linearGradient id="paint0_linear_703_2826" x1="77.3472" y1="30.373" x2="70.4089" y2="23.2084" gradientUnits="userSpaceOnUse">
<stop stop-color="#F68B2E"/>
<stop offset="1" stop-color="#F6BB5C"/>
</linearGradient>
</defs>
</svg>
